<svg xmlns="http://www.w3.org/2000/svg" width="24" height="24" viewBox="0 0 24 24" fill="currentColor"><g id="main"><path d="m17.05 19.898-.21-1.313c3.382-.542 5.476-2.06 5.476-3.155 0-1.097-1.148-1.635-1.197-1.657l.543-1.214c.081.035 1.984.902 1.984 2.87 0 2.01-2.712 3.847-6.595 4.469M15.07 19.47c-.022-.295-.03-.394-2.575-2.834l-.92.96c.585.562 1.025.991 1.363 1.327a33 33 0 0 1-.92.015c-6.48 0-10.353-1.788-10.353-3.517 0-.877.881-1.487 1.26-1.708l-.67-1.149c-.578.338-1.92 1.291-1.92 2.857 0 2.9 4.695 4.847 11.683 4.847q.548 0 1.08-.018c-.292.391-.678.9-1.213 1.582l1.048.82c2.167-2.77 2.158-2.89 2.136-3.181M11.191 9.737c0 .452.362.818.808.818s.808-.366.808-.818A.813.813 0 0 0 12 8.92a.813.813 0 0 0-.808.818"/><path d="m20.646 6.855-.235-1.31a48 48 0 0 1-1.894.297c-.478-.873-.888-1.561-.888-1.561C17.228 3.64 16.742 3 15.562 3H8.375c-1.11 0-1.52.594-2.005 1.273 0 0-.419.703-.904 1.59a49 49 0 0 1-1.882-.287l-.228 1.31c.484.085.97.152 1.455.222-.447.894-.817 1.751-.817 2.145v4.56A1.18 1.18 0 0 0 5.167 15h2.548c.648 0 1.18-.539 1.18-1.195v-.351h6.214v.359A1.18 1.18 0 0 0 16.28 15h2.543a1.18 1.18 0 0 0 1.172-1.187v-4.56c0-.4-.375-1.268-.825-2.168.492-.073.984-.143 1.474-.23M7.483 5c.449-.627.51-.67.89-.67h7.188c.45 0 .59.097.925.631.2.335.404.69.604 1.048-3.39.367-6.799.371-10.197.016.196-.349.395-.696.59-1.025m10.996 3.75c-.941.13-1.898.239-2.92.314l.096 1.326a47 47 0 0 0 3.01-.322v3.601H16.44v-1.546H7.565v1.546h-2.24v-3.582c1.029.134 2.064.247 3.096.318l.092-1.326a51 51 0 0 1-3.008-.31c.159-.386.407-.902.707-1.48 1.9.22 3.803.34 5.707.34 1.954 0 3.908-.126 5.854-.358.298.575.546 1.09.707 1.48"/></g></svg>