<svg xmlns="http://www.w3.org/2000/svg" width="24" height="24" viewBox="0 0 24 24" fill="currentColor"><g id="main"><path d="M16.092 14.999H7.12l-1.031-3.127a1.3 1.3 0 0 1 .076-1.029 1.25 1.25 0 0 1 .757-.638 51 51 0 0 1 6.213-.052 1.9 1.9 0 0 1 .462-1.086l.002-.002a7.64 7.64 0 0 0 1.675-3.2 11.7 11.7 0 0 0 .548-3.548A1.29 1.29 0 0 1 17.126 1h3.028l.034.625a22.6 22.6 0 0 1-.64 6.48 16.5 16.5 0 0 1-3.258 6.646zm-8.029-1.323h7.39a15.15 15.15 0 0 0 2.805-5.867 22 22 0 0 0 .632-5.488h-1.764a12.5 12.5 0 0 1-.582 3.906 8.9 8.9 0 0 1-1.941 3.698c-.107.125-.177.21-.183.915l-.007.678-.677-.022c-2.754-.095-6.007-.123-6.458-.018zM21.672 12.572l-.543 1.214a2.03 2.03 0 0 1 1.196 1.657c0 1.097-2.093 2.614-5.474 3.155l.209 1.313c3.883-.62 6.595-2.458 6.595-4.468a3.37 3.37 0 0 0-1.983-2.871"/><path d="m12.505 16.65-.92.96c.585.561 1.025.99 1.362 1.326q-.453.015-.92.016c-6.48 0-10.352-1.788-10.352-3.518 0-.875.882-1.486 1.261-1.709l-.673-1.146a3.55 3.55 0 0 0-1.918 2.855c0 2.9 4.695 4.848 11.683 4.848q.548 0 1.08-.019c-.29.389-.675.896-1.212 1.584l1.047.819c2.164-2.769 2.156-2.897 2.137-3.182-.022-.302-.03-.393-2.575-2.834"/></g></svg>