<svg xmlns="http://www.w3.org/2000/svg" width="24" height="24" viewBox="0 0 24 24" fill="currentColor"><g id="main"><path d="M20.027 4H3.917A1.916 1.916 0 0 0 2 5.916v12.168c0 .018.005.035.005.054l-.003.003.004.004A1.913 1.913 0 0 0 3.916 20h16.111a1.916 1.916 0 0 0 1.917-1.916V5.916A1.916 1.916 0 0 0 20.027 4M3.33 5.916c0-.323.263-.586.586-.586h16.111c.324 0 .587.263.587.586v7.41C16.648 9.017 16.084 9 15.67 9c-.52 0-1.059.003-5.951 5.452-1.494-1.439-1.842-1.449-2.116-1.449-.395 0-.885.012-4.274 3.68zm.16 12.563c2.825-3.119 3.797-3.908 4.114-4.105.323.2 1.331 1.022 4.287 4.296H3.916a.58.58 0 0 1-.427-.191m16.537.19H13.67l-.463-.528a96 96 0 0 0-2.633-2.837l.094.084c3.632-4.048 4.694-4.87 4.99-5.034.315.173 1.41 1.016 4.957 4.948v2.782a.587.587 0 0 1-.587.586"/><path d="M6.966 10.998c-1.416 0-2.367-.952-2.367-2.368s.95-2.369 2.367-2.369c1.394 0 2.368.974 2.368 2.369s-.974 2.368-2.368 2.368m0-3.407c-.473 0-1.037.18-1.037 1.039s.564 1.038 1.037 1.038c.387 0 1.038-.135 1.038-1.038S7.354 7.59 6.966 7.59"/></g></svg>