<svg xmlns="http://www.w3.org/2000/svg" xmlns:xlink="http://www.w3.org/1999/xlink" viewBox="0 0 1936 1760" width="1936"
    height="1760" preserveAspectRatio="xMidYMid meet"
    style="width: 100%; height: 100%; transform: translate3d(0px, 0px, 0px); content-visibility: visible;">
    <defs>
        <clipPath id="__lottie_element_6196">
            <rect width="1936" height="1760" x="0" y="0"></rect>
        </clipPath>
    </defs>
    <g clip-path="url(#__lottie_element_6196)">
        <g transform="matrix(1,0,0,1,-472,-3210.903076171875)" opacity="1" style="display: block;">
            <g opacity="1" transform="matrix(2,0,0,2,491.75,3231.43505859375)">
                <g opacity="1" transform="matrix(1.1688300371170044,0,0,1.1688300371170044,0,0)">
                    <path fill="rgb(40,93,96)" fill-opacity="1"
                        d=" M0,-7.5 C4.139249801635742,-7.5 7.5,-4.139249801635742 7.5,0 C7.5,4.139249801635742 4.139249801635742,7.5 0,7.5 C-4.139249801635742,7.5 -7.5,4.139249801635742 -7.5,0 C-7.5,-4.139249801635742 -4.139249801635742,-7.5 0,-7.5z">
                    </path>
                    <path stroke-linecap="butt" stroke-linejoin="miter" fill-opacity="0" stroke-miterlimit="4"
                        stroke="rgb(198,77,91)" stroke-opacity="1" stroke-width="0"
                        d=" M0,-7.5 C4.139249801635742,-7.5 7.5,-4.139249801635742 7.5,0 C7.5,4.139249801635742 4.139249801635742,7.5 0,7.5 C-4.139249801635742,7.5 -7.5,4.139249801635742 -7.5,0 C-7.5,-4.139249801635742 -4.139249801635742,-7.5 0,-7.5z">
                    </path>
                </g>
            </g>
        </g>
        <g transform="matrix(1,0,0,1,-1.25,-3210.903076171875)" opacity="1" style="display: block;">
            <g opacity="1" transform="matrix(2,0,0,2,491.75,3231.43505859375)">
                <g opacity="1" transform="matrix(1.1688300371170044,0,0,1.1688300371170044,0,0)">
                    <path fill="rgb(40,93,96)" fill-opacity="1"
                        d=" M0,-7.5 C4.139249801635742,-7.5 7.5,-4.139249801635742 7.5,0 C7.5,4.139249801635742 4.139249801635742,7.5 0,7.5 C-4.139249801635742,7.5 -7.5,4.139249801635742 -7.5,0 C-7.5,-4.139249801635742 -4.139249801635742,-7.5 0,-7.5z">
                    </path>
                    <path stroke-linecap="butt" stroke-linejoin="miter" fill-opacity="0" stroke-miterlimit="4"
                        stroke="rgb(198,77,91)" stroke-opacity="1" stroke-width="0"
                        d=" M0,-7.5 C4.139249801635742,-7.5 7.5,-4.139249801635742 7.5,0 C7.5,4.139249801635742 4.139249801635742,7.5 0,7.5 C-4.139249801635742,7.5 -7.5,4.139249801635742 -7.5,0 C-7.5,-4.139249801635742 -4.139249801635742,-7.5 0,-7.5z">
                    </path>
                </g>
            </g>
        </g>
        <g transform="matrix(1,0,0,1,474,-3210.903076171875)" opacity="1" style="display: block;">
            <g opacity="1" transform="matrix(2,0,0,2,491.75,3231.43505859375)">
                <g opacity="1" transform="matrix(1.1688300371170044,0,0,1.1688300371170044,0,0)">
                    <path fill="rgb(40,93,96)" fill-opacity="1"
                        d=" M0,-7.5 C4.139249801635742,-7.5 7.5,-4.139249801635742 7.5,0 C7.5,4.139249801635742 4.139249801635742,7.5 0,7.5 C-4.139249801635742,7.5 -7.5,4.139249801635742 -7.5,0 C-7.5,-4.139249801635742 -4.139249801635742,-7.5 0,-7.5z">
                    </path>
                    <path stroke-linecap="butt" stroke-linejoin="miter" fill-opacity="0" stroke-miterlimit="4"
                        stroke="rgb(198,77,91)" stroke-opacity="1" stroke-width="0"
                        d=" M0,-7.5 C4.139249801635742,-7.5 7.5,-4.139249801635742 7.5,0 C7.5,4.139249801635742 4.139249801635742,7.5 0,7.5 C-4.139249801635742,7.5 -7.5,4.139249801635742 -7.5,0 C-7.5,-4.139249801635742 -4.139249801635742,-7.5 0,-7.5z">
                    </path>
                </g>
            </g>
        </g>
        <g transform="matrix(1,0,0,1,950,-3210.903076171875)" opacity="1" style="display: block;">
            <g opacity="1" transform="matrix(2,0,0,2,491.75,3231.43505859375)">
                <g opacity="1" transform="matrix(1.1688300371170044,0,0,1.1688300371170044,0,0)">
                    <path fill="rgb(40,93,96)" fill-opacity="1"
                        d=" M0,-7.5 C4.139249801635742,-7.5 7.5,-4.139249801635742 7.5,0 C7.5,4.139249801635742 4.139249801635742,7.5 0,7.5 C-4.139249801635742,7.5 -7.5,4.139249801635742 -7.5,0 C-7.5,-4.139249801635742 -4.139249801635742,-7.5 0,-7.5z">
                    </path>
                    <path stroke-linecap="butt" stroke-linejoin="miter" fill-opacity="0" stroke-miterlimit="4"
                        stroke="rgb(198,77,91)" stroke-opacity="1" stroke-width="0"
                        d=" M0,-7.5 C4.139249801635742,-7.5 7.5,-4.139249801635742 7.5,0 C7.5,4.139249801635742 4.139249801635742,7.5 0,7.5 C-4.139249801635742,7.5 -7.5,4.139249801635742 -7.5,0 C-7.5,-4.139249801635742 -4.139249801635742,-7.5 0,-7.5z">
                    </path>
                </g>
            </g>
        </g>
        <g transform="matrix(1,0,0,1,1424.75,-3210.903076171875)" opacity="1" style="display: block;">
            <g opacity="1" transform="matrix(2,0,0,2,491.75,3231.43505859375)">
                <g opacity="1" transform="matrix(1.1688300371170044,0,0,1.1688300371170044,0,0)">
                    <path fill="rgb(40,93,96)" fill-opacity="1"
                        d=" M0,-7.5 C4.139249801635742,-7.5 7.5,-4.139249801635742 7.5,0 C7.5,4.139249801635742 4.139249801635742,7.5 0,7.5 C-4.139249801635742,7.5 -7.5,4.139249801635742 -7.5,0 C-7.5,-4.139249801635742 -4.139249801635742,-7.5 0,-7.5z">
                    </path>
                    <path stroke-linecap="butt" stroke-linejoin="miter" fill-opacity="0" stroke-miterlimit="4"
                        stroke="rgb(198,77,91)" stroke-opacity="1" stroke-width="0"
                        d=" M0,-7.5 C4.139249801635742,-7.5 7.5,-4.139249801635742 7.5,0 C7.5,4.139249801635742 4.139249801635742,7.5 0,7.5 C-4.139249801635742,7.5 -7.5,4.139249801635742 -7.5,0 C-7.5,-4.139249801635742 -4.139249801635742,-7.5 0,-7.5z">
                    </path>
                </g>
            </g>
        </g>
        <g transform="matrix(1,0,0,1,-472,-3210.903076171875)" opacity="1" style="display: block;">
            <g opacity="1" transform="matrix(2,0,0,2,2388.25,3231.43505859375)">
                <g opacity="1" transform="matrix(1.1688300371170044,0,0,1.1688300371170044,0,0)">
                    <path stroke-linecap="butt" stroke-linejoin="miter" fill-opacity="0" stroke-miterlimit="4"
                        stroke="rgb(40,93,96)" stroke-opacity="1" stroke-width="1"
                        d=" M0,-7.5 C4.139249801635742,-7.5 7.5,-4.139249801635742 7.5,0 C7.5,4.139249801635742 4.139249801635742,7.5 0,7.5 C-4.139249801635742,7.5 -7.5,4.139249801635742 -7.5,0 C-7.5,-4.139249801635742 -4.139249801635742,-7.5 0,-7.5z">
                    </path>
                </g>
            </g>
            <g opacity="1" transform="matrix(2,0,0,2,1914,3231.43505859375)">
                <g opacity="1" transform="matrix(1.1688300371170044,0,0,1.1688300371170044,0,0)">
                    <path stroke-linecap="butt" stroke-linejoin="miter" fill-opacity="0" stroke-miterlimit="4"
                        stroke="rgb(40,93,96)" stroke-opacity="1" stroke-width="1"
                        d=" M0,-7.5 C4.139249801635742,-7.5 7.5,-4.139249801635742 7.5,0 C7.5,4.139249801635742 4.139249801635742,7.5 0,7.5 C-4.139249801635742,7.5 -7.5,4.139249801635742 -7.5,0 C-7.5,-4.139249801635742 -4.139249801635742,-7.5 0,-7.5z">
                    </path>
                </g>
            </g>
            <g opacity="1" transform="matrix(2,0,0,2,1438,3231.43505859375)">
                <g opacity="1" transform="matrix(1.1688300371170044,0,0,1.1688300371170044,0,0)">
                    <path stroke-linecap="butt" stroke-linejoin="miter" fill-opacity="0" stroke-miterlimit="4"
                        stroke="rgb(40,93,96)" stroke-opacity="1" stroke-width="1"
                        d=" M0,-7.5 C4.139249801635742,-7.5 7.5,-4.139249801635742 7.5,0 C7.5,4.139249801635742 4.139249801635742,7.5 0,7.5 C-4.139249801635742,7.5 -7.5,4.139249801635742 -7.5,0 C-7.5,-4.139249801635742 -4.139249801635742,-7.5 0,-7.5z">
                    </path>
                </g>
            </g>
            <g opacity="1" transform="matrix(2,0,0,2,962,3231.43505859375)">
                <g opacity="1" transform="matrix(1.1688300371170044,0,0,1.1688300371170044,0,0)">
                    <path stroke-linecap="butt" stroke-linejoin="miter" fill-opacity="0" stroke-miterlimit="4"
                        stroke="rgb(40,93,96)" stroke-opacity="1" stroke-width="1"
                        d=" M0,-7.5 C4.139249801635742,-7.5 7.5,-4.139249801635742 7.5,0 C7.5,4.139249801635742 4.139249801635742,7.5 0,7.5 C-4.139249801635742,7.5 -7.5,4.139249801635742 -7.5,0 C-7.5,-4.139249801635742 -4.139249801635742,-7.5 0,-7.5z">
                    </path>
                </g>
            </g>
            <g opacity="1" transform="matrix(2,0,0,2,491.75,3231.43505859375)">
                <g opacity="1" transform="matrix(1.1688300371170044,0,0,1.1688300371170044,0,0)">
                    <path stroke-linecap="butt" stroke-linejoin="miter" fill-opacity="0" stroke-miterlimit="4"
                        stroke="rgb(40,93,96)" stroke-opacity="1" stroke-width="1"
                        d=" M0,-7.5 C4.139249801635742,-7.5 7.5,-4.139249801635742 7.5,0 C7.5,4.139249801635742 4.139249801635742,7.5 0,7.5 C-4.139249801635742,7.5 -7.5,4.139249801635742 -7.5,0 C-7.5,-4.139249801635742 -4.139249801635742,-7.5 0,-7.5z">
                    </path>
                </g>
            </g>
        </g>
        <g style="display: block;" transform="matrix(1,0,0,1,965.6669921875,1744.7159423828125)" opacity="1">
            <g opacity="1" transform="matrix(2,0,0,2,0,0)">
                <path fill="rgb(40,93,96)" fill-opacity="1"
                    d=" M0,-6 C3.3113999366760254,-6 6,-3.3113999366760254 6,0 C6,3.3113999366760254 3.3113999366760254,6 0,6 C-3.3113999366760254,6 -6,3.3113999366760254 -6,0 C-6,-3.3113999366760254 -3.3113999366760254,-6 0,-6z">
                </path>
            </g>
        </g>
        <g transform="matrix(1,0,0,1,1441.5,642.5)" opacity="1" style="display: block;">
            <g opacity="1" transform="matrix(2,0,0,2,0,0)">
                <path stroke-linecap="butt" stroke-linejoin="miter" fill-opacity="0" stroke-miterlimit="4"
                    stroke="rgb(40,93,96)" stroke-opacity="1" stroke-width="1"
                    d=" M238,-289.5 C238,-198.4149932861328 188.22000122070312,-114.61299896240234 108.23200225830078,-71.04199981689453 C108.23200225830078,-71.04199981689453 -108.11000061035156,46.80400085449219 -108.11000061035156,46.80400085449219 C-183.6179962158203,87.93499755859375 -232.23300170898438,164.88299560546875 -237.52000427246094,249.98300170898438">
                </path>
            </g>
        </g>
        <g transform="matrix(1,0,0,1,1204,399.5)" opacity="1" style="display: block;">
            <g opacity="1" transform="matrix(2,0,0,2,0,0)">
                <path stroke-linecap="butt" stroke-linejoin="miter" fill-opacity="0" stroke-miterlimit="4"
                    stroke="rgb(40,93,96)" stroke-opacity="1" stroke-width="1"
                    d=" M-118.69599914550781,157.49600219726562 C-115.33000183105469,99.41799926757812 -84.19499969482422,46.215999603271484 -34.6609992980957,14.899999618530273 C-34.6609992980957,14.899999618530273 46.516998291015625,-36.422000885009766 46.516998291015625,-36.422000885009766 C91.64199829101562,-64.95099639892578 119,-114.61299896240234 119,-168">
                </path>
            </g>
        </g>
        <g transform="matrix(-1,0,0,1,489.5,642.5)" opacity="1" style="display: block;">
            <g opacity="1" transform="matrix(2,0,0,2,0,0)">
                <path stroke-linecap="butt" stroke-linejoin="miter" fill-opacity="0" stroke-miterlimit="4"
                    stroke="rgb(40,93,96)" stroke-opacity="1" stroke-width="1"
                    d=" M234.75,-289.5 C234.75,-198.4149932861328 185.30999755859375,-114.61299896240234 105.86799621582031,-71.04199981689453 C105.86799621582031,-71.04199981689453 -108.99700164794922,46.80400085449219 -108.99700164794922,46.80400085449219 C-183.98899841308594,87.93499755859375 -232.27200317382812,164.88299560546875 -237.5229949951172,249.98300170898438">
                </path>
            </g>
        </g>
        <g transform="matrix(-1,0,0,1,727,399.5)" opacity="1" style="display: block;">
            <g opacity="1" transform="matrix(2,0,0,2,0,0)">
                <path stroke-linecap="butt" stroke-linejoin="miter" fill-opacity="0" stroke-miterlimit="4"
                    stroke="rgb(40,93,96)" stroke-opacity="1" stroke-width="1"
                    d=" M-118.66600036621094,156.9969940185547 C-115.1510009765625,99.11299896240234 -84.0530014038086,46.125999450683594 -34.6609992980957,14.899999618530273 C-34.6609992980957,14.899999618530273 46.516998291015625,-36.422000885009766 46.516998291015625,-36.422000885009766 C91.64199829101562,-64.95099639892578 119,-114.61299896240234 119,-168">
                </path>
            </g>
        </g>
        <g transform="matrix(1,0,0,1,965.6669921875,904.5)" opacity="1" style="display: block;">
            <g opacity="1" transform="matrix(2,0,0,2,0,0)">
                <path stroke-linecap="butt" stroke-linejoin="miter" fill-opacity="0" stroke-miterlimit="4"
                    stroke="rgb(40,93,96)" stroke-opacity="1" stroke-width="1" d=" M0,420.5 C0,420.5 0,-420.5 0,-420.5">
                </path>
            </g>
        </g>
        <g style="display: block;" transform="matrix(1,0,0,1,965.6669921875,1468.5059814453125)" opacity="1">
            <g opacity="1" transform="matrix(2,0,0,2,0,0)">
                <path stroke-linecap="butt" stroke-linejoin="miter" fill-opacity="0" stroke-miterlimit="4"
                    stroke="rgb(40,93,96)" stroke-opacity="1" stroke-width="1"
                    d=" M-0.7480000257492065,3.490999937057495 C0.890999972820282,3.5179998874664307 2.5329999923706055,3.4549999237060547 4.084000110626221,3.305000066757202 C5.635000228881836,3.1549999713897705 7.065999984741211,2.9200000762939453 8.293999671936035,2.615000009536743 C9.522000312805176,2.309999942779541 10.52400016784668,1.940000057220459 11.241999626159668,1.5269999504089355 C11.960000038146973,1.1139999628067017 12.380000114440918,0.6650000214576721 12.477999687194824,0.20600000023841858 C12.576000213623047,-0.2529999911785126 12.350000381469727,-0.7129999995231628 11.814000129699707,-1.1469999551773071 C11.277999877929688,-1.5809999704360962 10.440999984741211,-1.9809999465942383 9.35200023651123,-2.325000047683716 C8.262999534606934,-2.6689999103546143 6.941999912261963,-2.950000047683716 5.466000080108643,-3.1510000228881836 C3.990000009536743,-3.3519999980926514 2.38700008392334,-3.4700000286102295 0.7480000257492065,-3.496999979019165 M-0.8299999833106995,-31.51099967956543 C-4.001999855041504,-31.56999969482422 -6.9730000495910645,-31.96500015258789 -9.140999794006348,-32.61600112915039 C-11.309000015258789,-33.266998291015625 -12.510000228881836,-34.125 -12.5,-35.01499938964844 C-12.489999771118164,-35.904998779296875 -11.267999649047852,-36.7599983215332 -9.085000038146973,-37.40700149536133 C-6.9019999504089355,-38.05400085449219 -3.9210000038146973,-38.444000244140625 -0.7480000257492065,-38.49700164794922 M-0.7480000257492065,38.49100112915039 C0.890999972820282,38.518001556396484 2.5329999923706055,38.45500183105469 4.084000110626221,38.30500030517578 C5.635000228881836,38.154998779296875 7.065999984741211,37.91999816894531 8.293999671936035,37.6150016784668 C9.522000312805176,37.310001373291016 10.52400016784668,36.939998626708984 11.241999626159668,36.527000427246094 C11.960000038146973,36.11399841308594 12.380000114440918,35.665000915527344 12.477999687194824,35.20600128173828 C12.576000213623047,34.74700164794922 12.350000381469727,34.2869987487793 11.814000129699707,33.85300064086914 C11.277999877929688,33.41899871826172 10.440999984741211,33.01900100708008 9.35200023651123,32.67499923706055 C8.262999534606934,32.33100128173828 6.941999912261963,32.04999923706055 5.466000080108643,31.849000930786133 C3.990000009536743,31.648000717163086 2.38700008392334,31.530000686645508 0.7480000257492065,31.503000259399414 M-0.8299999833106995,3.489000082015991 C-4.001999855041504,3.430000066757202 -6.9730000495910645,3.0350000858306885 -9.140999794006348,2.384000062942505 C-11.309000015258789,1.7330000400543213 -12.510000228881836,0.875 -12.5,-0.014999999664723873 C-12.489999771118164,-0.9049999713897705 -11.267999649047852,-1.7599999904632568 -9.085000038146973,-2.4070000648498535 C-6.9019999504089355,-3.053999900817871 -3.9210000038146973,-3.444000005722046 -0.7480000257492065,-3.496999979019165 M12.5,-28.003000259399414 C12.5,-29.93600082397461 6.9039998054504395,-31.503000259399414 0,-31.503000259399414 C-6.9039998054504395,-31.503000259399414 -12.5,-29.93600082397461 -12.5,-28.003000259399414 C-12.5,-26.06999969482422 -6.9039998054504395,-24.503000259399414 0,-24.503000259399414 C6.9039998054504395,-24.503000259399414 12.5,-26.06999969482422 12.5,-28.003000259399414z M12.5,-21.003000259399414 C12.5,-22.93600082397461 6.9039998054504395,-24.503000259399414 0,-24.503000259399414 C-6.9039998054504395,-24.503000259399414 -12.5,-22.93600082397461 -12.5,-21.003000259399414 C-12.5,-19.06999969482422 -6.9039998054504395,-17.503000259399414 0,-17.503000259399414 C6.9039998054504395,-17.503000259399414 12.5,-19.06999969482422 12.5,-21.003000259399414z M12.5,-14.003000259399414 C12.5,-15.935999870300293 6.9039998054504395,-17.503000259399414 0,-17.503000259399414 C-6.9039998054504395,-17.503000259399414 -12.5,-15.935999870300293 -12.5,-14.003000259399414 C-12.5,-12.069999694824219 -6.9039998054504395,-10.503000259399414 0,-10.503000259399414 C6.9039998054504395,-10.503000259399414 12.5,-12.069999694824219 12.5,-14.003000259399414z M12.5,-7.002999782562256 C12.5,-8.935999870300293 6.9039998054504395,-10.503000259399414 0,-10.503000259399414 C-6.9039998054504395,-10.503000259399414 -12.5,-8.935999870300293 -12.5,-7.002999782562256 C-12.5,-5.070000171661377 -6.9039998054504395,-3.503000020980835 0,-3.503000020980835 C6.9039998054504395,-3.503000020980835 12.5,-5.070000171661377 12.5,-7.002999782562256z M12.5,6.997000217437744 C12.5,5.064000129699707 6.9039998054504395,3.496999979019165 0,3.496999979019165 C-6.9039998054504395,3.496999979019165 -12.5,5.064000129699707 -12.5,6.997000217437744 C-12.5,8.930000305175781 -6.9039998054504395,10.496999740600586 0,10.496999740600586 C6.9039998054504395,10.496999740600586 12.5,8.930000305175781 12.5,6.997000217437744z M12.5,13.996999740600586 C12.5,12.064000129699707 6.9039998054504395,10.496999740600586 0,10.496999740600586 C-6.9039998054504395,10.496999740600586 -12.5,12.064000129699707 -12.5,13.996999740600586 C-12.5,15.930000305175781 -6.9039998054504395,17.496999740600586 0,17.496999740600586 C6.9039998054504395,17.496999740600586 12.5,15.930000305175781 12.5,13.996999740600586z M12.5,20.996999740600586 C12.5,19.06399917602539 6.9039998054504395,17.496999740600586 0,17.496999740600586 C-6.9039998054504395,17.496999740600586 -12.5,19.06399917602539 -12.5,20.996999740600586 C-12.5,22.93000030517578 -6.9039998054504395,24.496999740600586 0,24.496999740600586 C6.9039998054504395,24.496999740600586 12.5,22.93000030517578 12.5,20.996999740600586z M12.5,27.996999740600586 C12.5,26.06399917602539 6.9039998054504395,24.496999740600586 0,24.496999740600586 C-6.9039998054504395,24.496999740600586 -12.5,26.06399917602539 -12.5,27.996999740600586 C-12.5,29.93000030517578 -6.9039998054504395,31.496999740600586 0,31.496999740600586 C6.9039998054504395,31.496999740600586 12.5,29.93000030517578 12.5,27.996999740600586z">
                </path>
            </g>
        </g>
    </g>
</svg>